<svg version="1.2" baseProfile="tiny-ps" xmlns="http://www.w3.org/2000/svg" viewBox="0 0 1033 954" width="1033" height="954">
	<title>PINS</title>
	<style>
		tspan { white-space:pre }
		.shp0 { fill: none;stroke: #ece900 } 
		.shp1 { fill: #e16630 } 
		.shp2 { fill: #ffffff } 
	</style>
	<g id="Maps">
		<path id="Forma 5" class="shp0" d="M452.82 0C453.49 3.77 453.9 7.61 454.89 11.29C455.88 14.95 456.43 19.63 458.95 21.81C465.06 27.12 464.65 31.75 460.5 37.84C447.6 56.81 453.6 75.27 464.88 89.17C469.51 94.87 475.22 96.98 482.16 95.63C490.06 94.11 497.81 91.68 505.76 90.6C511.76 89.79 518.18 89.51 524.05 90.73C533.33 92.67 540.45 90.12 546.64 83.49C554.32 75.28 571.39 74.3 579.95 81.93C593.42 93.95 610.23 94.74 624.22 88.09C631.8 84.5 642.97 78.06 645.23 65.11C646.24 59.32 653.78 54.43 658.99 49.85C659.77 49.16 665.76 51.87 666.35 53.89C669.56 64.86 672.78 75.99 674.14 87.28C675.33 97.21 678.7 103.6 688.95 105.62C692.09 106.24 695 108.08 696.43 108.69C693.3 115.54 691.14 121.72 687.77 127.16C685.62 130.62 681.69 132.99 678.56 135.85C668.76 144.77 658.78 153.51 649.27 162.73C646.83 165.1 645.9 169.02 644.27 172.23C644.87 173.03 645.48 173.83 646.08 174.63C651.43 172.16 657.58 170.68 661.98 167.06C680.94 151.47 700.99 154.24 721.51 162.44C729.04 165.45 729.63 168.46 723.3 173.55C713.98 181.04 704.11 187.84 693.64 195.55C694.65 197.1 696.52 199.98 698.68 203.32C701.44 201.3 703.85 199.9 705.81 198.03C724.8 179.97 746.81 178.3 769.59 188.11C784.54 194.55 798.46 203.47 812.53 211.79C814.25 212.81 815 217.19 814.6 219.75C813.52 226.62 811.57 233.35 809.63 241.52C818.67 238.75 825.94 236.35 833.31 234.32C843.45 231.53 852.68 232.91 861.27 239.69C872.64 248.65 885.36 252.8 900.26 250.17C912.86 247.95 922.34 252.74 933.71 260.36C953.08 273.34 961.53 293.91 976.93 309.01C982.69 314.65 991.33 318.45 999.31 320.47C1017.84 325.17 1024.66 331.21 1027.7 349.93C1029.44 360.61 1030.61 371.39 1032.38 382.08C1034.69 395.96 1030.39 407.65 1021.39 418.01C1012.66 428.04 1004.57 438.71 995.07 447.94C990.02 452.84 982.96 456.73 976.14 458.51C964.91 461.46 957.47 466.94 953.8 478.21C948.69 493.92 937.69 504.65 922.4 510.32C911.78 514.26 908.66 521.69 907.04 532.15C902.85 559.34 898.11 586.5 892.1 613.33C890.34 621.22 883.37 627.87 879.23 635.33C876.37 640.47 872.35 646 872.26 651.41C872.1 660.78 869.38 668.17 863.25 674.95C854.39 684.74 847.82 696.62 835.16 702.85C831.71 704.55 829.56 709.33 827.33 713.01C816.73 730.57 800.41 740.35 781.24 744.86C774.21 746.52 765.83 744.73 758.61 742.63C750.93 740.4 744.62 740.56 738.96 746.29C731.33 754.01 722.05 756.88 711.36 757.76C705.54 758.24 699.83 761.42 694.34 763.97C687.92 766.95 681.62 770.28 675.6 773.99C671.23 776.67 667.51 780.4 663.26 783.31C660.11 785.48 656.57 787.09 653.2 788.95C651.88 788.06 650.55 787.17 649.23 786.28C645.85 805.16 642.13 823.99 639.2 842.94C637.28 855.39 632.4 865.61 623.27 874.58C615.87 881.83 609.67 890.49 603.89 899.17C597.55 908.7 595.31 909.78 584.55 903.72C573.55 916.94 558.54 927.08 553.27 945.19C551.58 950.99 548.83 957.87 540.27 951.38C539.27 950.62 536.75 951.87 534.94 952.17C528.92 953.17 524.56 952.73 522.34 945.19C520.99 940.63 516.14 936.94 512.47 933.26C506.78 927.56 500.57 922.38 494.92 916.64C489.76 911.39 485.71 904.02 476.57 910.61C475.9 911.09 471.48 908.49 471.56 907.56C472.42 897.77 466.36 891.3 461.12 884.44C456.66 878.6 456.84 873.56 462.07 868C479.76 849.17 497.36 830.53 522.63 821.3C526.91 819.74 530.37 813.79 532.5 809.1C534.47 804.77 534.19 799.4 534.8 794.48C535.85 786.15 533.72 779 526.45 774.16C522.14 771.29 521.39 768.16 523.04 763.12C525.25 756.4 526.74 749.32 527.43 742.28C528.26 733.88 524.85 731.07 516.46 731.73C502.23 732.85 501.88 732.5 502.73 718.2C504.2 693.69 497.79 686.19 473.06 683.4C470.28 683.09 467.54 682.35 464.76 682.23C456.21 681.87 452.39 677.32 452.86 669.02C453.65 655.08 453.51 640.98 455.77 627.28C457.72 615.38 461.97 603.78 466.08 592.36C469.98 581.51 466.98 570.64 456.88 564.99C449.37 560.8 448.94 554.9 451.29 547.58C455.15 535.6 454.44 536.03 442.08 534.36C432.28 533.04 422.25 529.89 413.49 525.32C404.91 520.85 404.03 512.66 408.53 503.81C418.99 483.27 404.48 460.65 381.42 461.35C378.78 461.43 374.66 461.25 373.66 459.66C365.3 446.44 348.9 445.4 338.31 435.72C336.58 434.14 334.07 432.73 331.8 432.52C303.31 429.87 290.78 401.68 297.85 375.88C299.14 371.15 298.03 365.76 298.03 360.74C280.35 360.87 267.22 365.14 254.28 375.32C245.26 382.42 233.4 389.26 219.67 388.32C210.12 387.67 200.44 388.91 190.82 388.97C178.96 389.04 174.96 385.07 175.21 373.5C175.37 366.44 176.03 359.39 176.53 351.44C167.33 354.96 158.61 358.04 150.12 361.65C143.97 364.25 139.49 364.23 136.94 356.93C136.19 354.75 134.37 352.02 132.41 351.33C115.45 345.35 113.44 329.58 108.45 315.69C107.64 313.46 106.71 311.15 105.3 309.28C97.91 299.52 97.94 291.09 107.39 283.41C113.44 278.49 116.41 272.87 117.83 265.64C121.38 247.61 132.49 234.1 148.46 227.46C159.71 222.78 173.53 222.93 186.14 223.32C194.41 223.58 198.13 222.19 199.61 213.95C202.43 198.19 205.72 182.51 209.27 166.9C210.13 163.09 212.46 159.51 214.61 156.13C219.95 147.71 219.05 139.79 213.59 131.85C210.25 127.01 206.72 122.2 204.17 116.94C199.63 107.55 202.73 102.29 213.01 100.68C214.54 100.44 216.27 100.6 217.57 99.93C219.83 98.76 223.35 97.27 223.56 95.58C223.8 93.59 221.32 91.01 219.56 89.11C218.36 87.83 215.87 87.68 214.84 86.34C213.13 84.11 210.77 81.06 211.2 78.86C211.66 76.54 214.76 73.9 217.27 73.04C220.35 71.98 224.02 72.76 227.42 72.49C237.24 71.73 247.15 71.4 256.86 69.84C268.51 67.97 275.12 71.57 279.09 82.68C280.71 87.2 283.1 91.62 285.96 95.48C289.01 99.6 293.12 102.4 298.66 98.89C299.62 98.28 301.28 97.91 302.26 98.31C315.42 103.71 324.53 94.76 334.56 89.28C343.81 84.23 352.92 78.94 362.1 73.77C371.14 68.67 371.58 62.98 362.83 57.19C353.88 51.27 350.08 43.02 350.53 32.71C350.94 23.37 355.76 20.47 363.98 24.5C370.33 27.62 376.42 31.28 382.62 34.71C383.18 34.48 384.03 34.4 384.25 33.98C390.17 22.52 401.06 21.41 411.9 21.46C424.71 21.52 433.71 15.9 440.42 5.5C441.74 3.45 443.7 1.82 445.37 0C447.85 0 450.34 0 452.82 0Z" />
		<path id="Forma 5 copiar" class="shp0" d="M432.82 0C433.49 3.77 433.9 7.61 434.89 11.29C435.88 14.95 436.43 19.63 438.95 21.81C445.06 27.12 444.65 31.75 440.5 37.84C427.6 56.81 433.6 75.27 444.88 89.17C449.51 94.87 455.22 96.98 462.16 95.63C470.06 94.11 477.81 91.68 485.76 90.6C491.76 89.79 498.18 89.51 504.05 90.73C513.33 92.67 520.45 90.12 526.64 83.49C534.32 75.28 551.39 74.3 559.95 81.93C573.42 93.95 590.23 94.74 604.22 88.09C611.8 84.5 622.97 78.06 625.23 65.11C626.24 59.32 633.78 54.43 638.99 49.85C639.77 49.16 645.76 51.87 646.35 53.89C649.56 64.86 652.78 75.99 654.14 87.28C655.33 97.21 658.7 103.6 668.95 105.62C672.09 106.24 675 108.08 676.43 108.69C673.3 115.54 671.14 121.72 667.77 127.16C665.62 130.62 661.69 132.99 658.56 135.85C648.76 144.77 638.78 153.51 629.27 162.73C626.83 165.1 625.9 169.02 624.27 172.23C624.87 173.03 625.48 173.83 626.08 174.63C631.43 172.16 637.58 170.68 641.98 167.06C660.94 151.47 680.99 154.24 701.51 162.44C709.04 165.45 709.63 168.46 703.3 173.55C693.98 181.04 684.11 187.84 673.64 195.55C674.65 197.1 676.52 199.98 678.68 203.32C681.44 201.3 683.85 199.9 685.81 198.03C704.8 179.97 726.81 178.3 749.59 188.11C764.54 194.55 778.46 203.47 792.53 211.79C794.25 212.81 795 217.19 794.6 219.75C793.52 226.62 791.57 233.35 789.63 241.52C798.67 238.75 805.94 236.35 813.31 234.32C823.45 231.53 832.68 232.91 841.27 239.69C852.64 248.65 865.36 252.8 880.26 250.17C892.86 247.95 902.34 252.74 913.71 260.36C933.08 273.34 941.53 293.91 956.93 309.01C962.69 314.65 971.33 318.45 979.31 320.47C997.84 325.17 1004.66 331.21 1007.7 349.93C1009.44 360.61 1010.61 371.39 1012.38 382.08C1014.69 395.96 1010.39 407.65 1001.39 418.01C992.66 428.04 984.57 438.71 975.07 447.94C970.02 452.84 962.96 456.73 956.14 458.51C944.91 461.46 937.47 466.94 933.8 478.21C928.69 493.92 917.69 504.65 902.4 510.32C891.78 514.26 888.66 521.69 887.04 532.15C882.85 559.34 878.11 586.5 872.1 613.33C870.34 621.22 863.37 627.87 859.23 635.33C856.37 640.47 852.35 646 852.26 651.41C852.1 660.78 849.38 668.17 843.25 674.95C834.39 684.74 827.82 696.62 815.16 702.85C811.71 704.55 809.56 709.33 807.33 713.01C796.73 730.57 780.41 740.35 761.24 744.86C754.21 746.52 745.83 744.73 738.61 742.63C730.93 740.4 724.62 740.56 718.96 746.29C711.33 754.01 702.05 756.88 691.36 757.76C685.54 758.24 679.83 761.42 674.34 763.97C667.92 766.95 661.62 770.28 655.6 773.99C651.23 776.67 647.51 780.4 643.26 783.31C640.11 785.48 636.57 787.09 633.21 788.95C631.88 788.06 630.55 787.17 629.23 786.28C625.85 805.16 622.13 823.99 619.2 842.94C617.28 855.39 612.4 865.61 603.27 874.58C595.87 881.83 589.67 890.49 583.89 899.17C577.55 908.7 575.31 909.78 564.55 903.72C553.55 916.94 538.54 927.08 533.27 945.19C531.58 950.99 528.83 957.87 520.27 951.38C519.27 950.62 516.75 951.87 514.94 952.17C508.92 953.17 504.56 952.73 502.34 945.19C500.99 940.63 496.14 936.94 492.47 933.26C486.78 927.56 480.57 922.38 474.92 916.64C469.76 911.39 465.71 904.02 456.57 910.61C455.9 911.09 451.48 908.49 451.56 907.56C452.42 897.77 446.36 891.3 441.12 884.44C436.66 878.6 436.84 873.56 442.07 868C459.76 849.17 477.36 830.53 502.63 821.3C506.91 819.74 510.37 813.79 512.5 809.1C514.47 804.77 514.19 799.4 514.8 794.48C515.85 786.15 513.72 779 506.45 774.16C502.14 771.29 501.39 768.16 503.04 763.12C505.25 756.4 506.74 749.32 507.43 742.28C508.26 733.88 504.85 731.07 496.46 731.73C482.23 732.85 481.88 732.5 482.73 718.2C484.2 693.69 477.79 686.19 453.06 683.4C450.28 683.09 447.54 682.35 444.76 682.23C436.21 681.87 432.39 677.32 432.86 669.02C433.65 655.08 433.51 640.98 435.77 627.28C437.72 615.38 441.97 603.78 446.08 592.36C449.98 581.51 446.98 570.64 436.88 564.99C429.37 560.8 428.94 554.9 431.29 547.58C435.15 535.6 434.44 536.03 422.08 534.36C412.28 533.04 402.25 529.89 393.49 525.32C384.91 520.85 384.03 512.66 388.53 503.81C398.99 483.27 384.48 460.65 361.42 461.35C358.78 461.43 354.66 461.25 353.66 459.66C345.3 446.44 328.9 445.4 318.31 435.72C316.58 434.14 314.07 432.73 311.8 432.52C283.31 429.87 270.78 401.68 277.85 375.88C279.14 371.15 278.03 365.76 278.03 360.74C260.35 360.87 247.22 365.14 234.28 375.32C225.26 382.42 213.4 389.26 199.67 388.32C190.12 387.67 180.44 388.91 170.82 388.97C158.96 389.04 154.96 385.07 155.21 373.5C155.37 366.44 156.03 359.39 156.53 351.44C147.33 354.96 138.61 358.04 130.12 361.65C123.97 364.25 119.49 364.23 116.94 356.93C116.19 354.75 114.37 352.02 112.41 351.33C95.45 345.35 93.44 329.58 88.45 315.69C87.64 313.46 86.71 311.15 85.3 309.28C77.9 299.52 77.94 291.09 87.39 283.41C93.44 278.49 96.41 272.87 97.83 265.64C101.38 247.61 112.49 234.1 128.46 227.46C139.71 222.78 153.53 222.93 166.13 223.32C174.41 223.58 178.13 222.19 179.61 213.95C182.43 198.19 185.72 182.51 189.27 166.9C190.13 163.09 192.46 159.51 194.61 156.13C199.95 147.71 199.05 139.79 193.59 131.85C190.25 127.01 186.72 122.2 184.17 116.94C179.63 107.55 182.73 102.29 193.01 100.68C194.54 100.44 196.27 100.6 197.57 99.93C199.83 98.76 203.35 97.27 203.56 95.58C203.8 93.59 201.32 91.01 199.56 89.11C198.36 87.83 195.87 87.68 194.84 86.34C193.13 84.11 190.77 81.06 191.2 78.86C191.66 76.54 194.76 73.9 197.27 73.04C200.35 71.98 204.02 72.76 207.42 72.49C217.24 71.73 227.15 71.4 236.86 69.84C248.51 67.97 255.12 71.57 259.09 82.68C260.71 87.2 263.1 91.62 265.96 95.48C269.01 99.6 273.12 102.4 278.66 98.89C279.62 98.28 281.28 97.91 282.26 98.31C295.42 103.71 304.53 94.76 314.56 89.28C323.81 84.23 332.92 78.94 342.1 73.77C351.14 68.67 351.58 62.98 342.83 57.19C333.88 51.27 330.08 43.02 330.53 32.71C330.94 23.37 335.76 20.47 343.98 24.5C350.33 27.62 356.42 31.28 362.62 34.71C363.18 34.48 364.03 34.4 364.25 33.98C370.17 22.52 381.06 21.41 391.9 21.46C404.71 21.52 413.71 15.9 420.42 5.5C421.74 3.45 423.7 1.82 425.37 0C427.85 0 430.34 0 432.82 0Z" />
		<path id="Forma 5 copiar 2" class="shp0" d="M412.82 0C413.49 3.77 413.9 7.61 414.89 11.29C415.88 14.95 416.43 19.63 418.95 21.81C425.06 27.12 424.65 31.75 420.5 37.84C407.6 56.81 413.6 75.27 424.88 89.17C429.51 94.87 435.22 96.98 442.16 95.63C450.06 94.11 457.81 91.68 465.76 90.6C471.76 89.79 478.18 89.51 484.05 90.73C493.33 92.67 500.45 90.12 506.64 83.49C514.32 75.28 531.39 74.3 539.95 81.93C553.42 93.95 570.23 94.74 584.22 88.09C591.8 84.5 602.97 78.06 605.23 65.11C606.24 59.32 613.78 54.43 618.99 49.85C619.77 49.16 625.76 51.87 626.35 53.89C629.56 64.86 632.78 75.99 634.14 87.28C635.33 97.21 638.7 103.6 648.95 105.62C652.09 106.24 655 108.08 656.43 108.69C653.3 115.54 651.14 121.72 647.77 127.16C645.62 130.62 641.69 132.99 638.56 135.85C628.76 144.77 618.78 153.51 609.27 162.73C606.83 165.1 605.9 169.02 604.27 172.23C604.87 173.03 605.48 173.83 606.08 174.63C611.43 172.16 617.58 170.68 621.98 167.06C640.94 151.47 660.99 154.24 681.51 162.44C689.04 165.45 689.63 168.46 683.3 173.55C673.98 181.04 664.11 187.84 653.64 195.55C654.65 197.1 656.52 199.98 658.68 203.32C661.44 201.3 663.85 199.9 665.81 198.03C684.8 179.97 706.81 178.3 729.59 188.11C744.54 194.55 758.46 203.47 772.53 211.79C774.25 212.81 775 217.19 774.6 219.75C773.52 226.62 771.57 233.35 769.63 241.52C778.67 238.75 785.94 236.35 793.31 234.32C803.45 231.53 812.68 232.91 821.27 239.69C832.64 248.65 845.36 252.8 860.26 250.17C872.86 247.95 882.34 252.74 893.71 260.36C913.08 273.34 921.53 293.91 936.93 309.01C942.69 314.65 951.33 318.45 959.31 320.47C977.84 325.17 984.66 331.21 987.7 349.93C989.44 360.61 990.61 371.39 992.38 382.08C994.69 395.96 990.39 407.65 981.39 418.01C972.66 428.04 964.57 438.71 955.07 447.94C950.02 452.84 942.96 456.73 936.14 458.51C924.91 461.46 917.47 466.94 913.8 478.21C908.69 493.92 897.69 504.65 882.4 510.32C871.78 514.26 868.66 521.69 867.04 532.15C862.85 559.34 858.11 586.5 852.1 613.33C850.34 621.22 843.37 627.87 839.23 635.33C836.37 640.47 832.35 646 832.26 651.41C832.1 660.78 829.38 668.17 823.25 674.95C814.39 684.74 807.82 696.62 795.16 702.85C791.71 704.55 789.56 709.33 787.33 713.01C776.73 730.57 760.41 740.35 741.24 744.86C734.21 746.52 725.83 744.73 718.61 742.63C710.93 740.4 704.62 740.56 698.96 746.29C691.33 754.01 682.05 756.88 671.36 757.76C665.54 758.24 659.83 761.42 654.34 763.97C647.92 766.95 641.62 770.28 635.6 773.99C631.23 776.67 627.51 780.4 623.26 783.31C620.11 785.48 616.57 787.09 613.21 788.95C611.88 788.06 610.55 787.17 609.23 786.28C605.85 805.16 602.13 823.99 599.2 842.94C597.28 855.39 592.4 865.61 583.27 874.58C575.87 881.83 569.67 890.49 563.89 899.17C557.55 908.7 555.31 909.78 544.55 903.72C533.55 916.94 518.54 927.08 513.27 945.19C511.58 950.99 508.83 957.87 500.27 951.38C499.27 950.62 496.75 951.87 494.94 952.17C488.92 953.17 484.56 952.73 482.34 945.19C480.99 940.63 476.14 936.94 472.47 933.26C466.78 927.56 460.57 922.38 454.92 916.64C449.76 911.39 445.71 904.02 436.57 910.61C435.9 911.09 431.48 908.49 431.56 907.56C432.42 897.77 426.36 891.3 421.12 884.44C416.66 878.6 416.84 873.56 422.07 868C439.76 849.17 457.36 830.53 482.63 821.3C486.91 819.74 490.37 813.79 492.5 809.1C494.47 804.77 494.19 799.4 494.8 794.48C495.85 786.15 493.72 779 486.45 774.16C482.14 771.29 481.39 768.16 483.04 763.12C485.25 756.4 486.74 749.32 487.43 742.28C488.26 733.88 484.85 731.07 476.46 731.73C462.23 732.85 461.88 732.5 462.73 718.2C464.2 693.69 457.79 686.19 433.06 683.4C430.28 683.09 427.54 682.35 424.76 682.23C416.21 681.87 412.39 677.32 412.86 669.02C413.65 655.08 413.51 640.98 415.77 627.28C417.72 615.38 421.97 603.78 426.08 592.36C429.98 581.51 426.98 570.64 416.88 564.99C409.37 560.8 408.94 554.9 411.29 547.58C415.15 535.6 414.44 536.03 402.08 534.36C392.28 533.04 382.25 529.89 373.49 525.32C364.91 520.85 364.03 512.66 368.53 503.81C378.99 483.27 364.48 460.65 341.42 461.35C338.78 461.43 334.66 461.25 333.66 459.66C325.3 446.44 308.9 445.4 298.31 435.72C296.58 434.14 294.07 432.73 291.8 432.52C263.31 429.87 250.78 401.68 257.85 375.88C259.14 371.15 258.03 365.76 258.03 360.74C240.35 360.87 227.22 365.14 214.28 375.32C205.26 382.42 193.4 389.26 179.67 388.32C170.12 387.67 160.44 388.91 150.82 388.97C138.96 389.04 134.96 385.07 135.21 373.5C135.37 366.44 136.03 359.39 136.53 351.44C127.33 354.96 118.61 358.04 110.12 361.65C103.97 364.25 99.49 364.23 96.94 356.93C96.19 354.75 94.37 352.02 92.41 351.33C75.45 345.35 73.44 329.58 68.45 315.69C67.64 313.46 66.71 311.15 65.3 309.28C57.9 299.52 57.94 291.09 67.39 283.41C73.44 278.49 76.41 272.87 77.83 265.64C81.38 247.61 92.49 234.1 108.46 227.46C119.71 222.78 133.53 222.93 146.14 223.32C154.41 223.58 158.13 222.19 159.61 213.95C162.43 198.19 165.72 182.51 169.27 166.9C170.13 163.09 172.46 159.51 174.61 156.13C179.95 147.71 179.05 139.79 173.59 131.85C170.25 127.01 166.72 122.2 164.17 116.94C159.63 107.55 162.73 102.29 173.01 100.68C174.54 100.44 176.27 100.6 177.57 99.93C179.83 98.76 183.35 97.27 183.56 95.58C183.8 93.59 181.32 91.01 179.56 89.11C178.36 87.83 175.87 87.68 174.84 86.34C173.13 84.11 170.77 81.06 171.2 78.86C171.66 76.54 174.76 73.9 177.27 73.04C180.35 71.98 184.02 72.76 187.42 72.49C197.24 71.73 207.15 71.4 216.86 69.84C228.51 67.97 235.12 71.57 239.09 82.68C240.71 87.2 243.1 91.62 245.96 95.48C249.01 99.6 253.12 102.4 258.66 98.89C259.62 98.28 261.28 97.91 262.26 98.31C275.42 103.71 284.53 94.76 294.56 89.28C303.81 84.23 312.92 78.94 322.1 73.77C331.14 68.67 331.58 62.98 322.83 57.19C313.88 51.27 310.08 43.02 310.53 32.71C310.94 23.37 315.76 20.47 323.98 24.5C330.33 27.62 336.42 31.28 342.62 34.71C343.18 34.48 344.03 34.4 344.25 33.98C350.17 22.52 361.06 21.41 371.9 21.46C384.71 21.52 393.71 15.9 400.42 5.5C401.74 3.45 403.7 1.82 405.37 0C407.85 0 410.34 0 412.82 0Z" />
		<path id="Forma 5 copiar 3" class="shp0" d="M392.82 0C393.49 3.77 393.9 7.61 394.89 11.29C395.88 14.95 396.43 19.63 398.95 21.81C405.06 27.12 404.65 31.75 400.5 37.84C387.6 56.81 393.6 75.27 404.88 89.17C409.51 94.87 415.22 96.98 422.16 95.63C430.06 94.11 437.81 91.68 445.76 90.6C451.76 89.79 458.18 89.51 464.05 90.73C473.33 92.67 480.45 90.12 486.64 83.49C494.32 75.28 511.39 74.3 519.95 81.93C533.42 93.95 550.23 94.74 564.22 88.09C571.8 84.5 582.97 78.06 585.23 65.11C586.24 59.32 593.78 54.43 598.99 49.85C599.77 49.16 605.76 51.87 606.35 53.89C609.56 64.86 612.78 75.99 614.14 87.28C615.33 97.21 618.7 103.6 628.95 105.62C632.09 106.24 635 108.08 636.43 108.69C633.3 115.54 631.14 121.72 627.77 127.16C625.62 130.62 621.69 132.99 618.56 135.85C608.76 144.77 598.78 153.51 589.27 162.73C586.83 165.1 585.9 169.02 584.27 172.23C584.87 173.03 585.48 173.83 586.08 174.63C591.43 172.16 597.58 170.68 601.98 167.06C620.94 151.47 640.99 154.24 661.51 162.44C669.04 165.45 669.63 168.46 663.3 173.55C653.98 181.04 644.11 187.84 633.64 195.55C634.65 197.1 636.52 199.98 638.68 203.32C641.44 201.3 643.85 199.9 645.81 198.03C664.8 179.97 686.81 178.3 709.59 188.11C724.54 194.55 738.46 203.47 752.53 211.79C754.25 212.81 755 217.19 754.6 219.75C753.52 226.62 751.57 233.35 749.63 241.52C758.67 238.75 765.94 236.35 773.31 234.32C783.45 231.53 792.68 232.91 801.27 239.69C812.64 248.65 825.36 252.8 840.26 250.17C852.86 247.95 862.34 252.74 873.71 260.36C893.08 273.34 901.53 293.91 916.93 309.01C922.69 314.65 931.33 318.45 939.31 320.47C957.84 325.17 964.66 331.21 967.7 349.93C969.44 360.61 970.61 371.39 972.38 382.08C974.69 395.96 970.39 407.65 961.39 418.01C952.66 428.04 944.57 438.71 935.07 447.94C930.02 452.84 922.96 456.73 916.14 458.51C904.91 461.46 897.47 466.94 893.8 478.21C888.69 493.92 877.69 504.65 862.4 510.32C851.78 514.26 848.66 521.69 847.04 532.15C842.85 559.34 838.11 586.5 832.1 613.33C830.34 621.22 823.37 627.87 819.23 635.33C816.37 640.47 812.35 646 812.26 651.41C812.1 660.78 809.38 668.17 803.25 674.95C794.39 684.74 787.82 696.62 775.16 702.85C771.71 704.55 769.56 709.33 767.33 713.01C756.73 730.57 740.41 740.35 721.24 744.86C714.21 746.52 705.83 744.73 698.61 742.63C690.93 740.4 684.62 740.56 678.96 746.29C671.33 754.01 662.05 756.88 651.36 757.76C645.54 758.24 639.83 761.42 634.34 763.97C627.92 766.95 621.62 770.28 615.6 773.99C611.23 776.67 607.51 780.4 603.26 783.31C600.11 785.48 596.57 787.09 593.2 788.95C591.88 788.06 590.55 787.17 589.23 786.28C585.85 805.16 582.13 823.99 579.2 842.94C577.28 855.39 572.4 865.61 563.27 874.58C555.87 881.83 549.67 890.49 543.89 899.17C537.55 908.7 535.31 909.78 524.55 903.72C513.55 916.94 498.54 927.08 493.27 945.19C491.58 950.99 488.83 957.87 480.27 951.38C479.27 950.62 476.75 951.87 474.94 952.17C468.92 953.17 464.56 952.73 462.34 945.19C460.99 940.63 456.14 936.94 452.47 933.26C446.78 927.56 440.57 922.38 434.92 916.64C429.76 911.39 425.71 904.02 416.57 910.61C415.9 911.09 411.48 908.49 411.56 907.56C412.42 897.77 406.36 891.3 401.12 884.44C396.66 878.6 396.84 873.56 402.07 868C419.76 849.17 437.36 830.53 462.63 821.3C466.91 819.74 470.37 813.79 472.5 809.1C474.47 804.77 474.19 799.4 474.8 794.48C475.85 786.15 473.72 779 466.45 774.16C462.14 771.29 461.39 768.16 463.04 763.12C465.25 756.4 466.74 749.32 467.43 742.28C468.26 733.88 464.85 731.07 456.46 731.73C442.23 732.85 441.88 732.5 442.73 718.2C444.2 693.69 437.79 686.19 413.06 683.4C410.28 683.09 407.54 682.35 404.76 682.23C396.21 681.87 392.39 677.32 392.86 669.02C393.65 655.08 393.51 640.98 395.77 627.28C397.72 615.38 401.97 603.78 406.08 592.36C409.98 581.51 406.98 570.64 396.88 564.99C389.37 560.8 388.94 554.9 391.29 547.58C395.15 535.6 394.44 536.03 382.08 534.36C372.28 533.04 362.25 529.89 353.49 525.32C344.91 520.85 344.03 512.66 348.53 503.81C358.99 483.27 344.48 460.65 321.42 461.35C318.78 461.43 314.66 461.25 313.66 459.66C305.3 446.44 288.9 445.4 278.31 435.72C276.58 434.14 274.07 432.73 271.8 432.52C243.31 429.87 230.78 401.68 237.85 375.88C239.14 371.15 238.03 365.76 238.03 360.74C220.35 360.87 207.22 365.14 194.28 375.32C185.26 382.42 173.4 389.26 159.67 388.32C150.12 387.67 140.44 388.91 130.82 388.97C118.96 389.04 114.96 385.07 115.21 373.5C115.37 366.44 116.03 359.39 116.53 351.44C107.33 354.96 98.61 358.04 90.12 361.65C83.97 364.25 79.49 364.23 76.94 356.93C76.19 354.75 74.37 352.02 72.41 351.33C55.45 345.35 53.44 329.58 48.45 315.69C47.64 313.46 46.71 311.15 45.3 309.28C37.9 299.52 37.94 291.09 47.39 283.41C53.44 278.49 56.41 272.87 57.83 265.64C61.38 247.61 72.49 234.1 88.46 227.46C99.71 222.78 113.53 222.93 126.14 223.32C134.41 223.58 138.13 222.19 139.61 213.95C142.43 198.19 145.72 182.51 149.27 166.9C150.13 163.09 152.46 159.51 154.61 156.13C159.95 147.71 159.05 139.79 153.59 131.85C150.25 127.01 146.72 122.2 144.17 116.94C139.63 107.55 142.73 102.29 153.01 100.68C154.54 100.44 156.27 100.6 157.57 99.93C159.83 98.76 163.35 97.27 163.56 95.58C163.8 93.59 161.32 91.01 159.56 89.11C158.36 87.83 155.87 87.68 154.84 86.34C153.13 84.11 150.77 81.06 151.2 78.86C151.66 76.54 154.76 73.9 157.27 73.04C160.35 71.98 164.02 72.76 167.42 72.49C177.24 71.73 187.15 71.4 196.86 69.84C208.51 67.97 215.12 71.57 219.09 82.68C220.71 87.2 223.1 91.62 225.96 95.48C229.01 99.6 233.12 102.4 238.66 98.89C239.62 98.28 241.28 97.91 242.26 98.31C255.42 103.71 264.53 94.76 274.56 89.28C283.81 84.23 292.92 78.94 302.1 73.77C311.14 68.67 311.58 62.98 302.83 57.19C293.88 51.27 290.08 43.02 290.53 32.71C290.94 23.37 295.76 20.47 303.98 24.5C310.33 27.62 316.42 31.28 322.62 34.71C323.18 34.48 324.03 34.4 324.25 33.98C330.17 22.52 341.06 21.41 351.9 21.46C364.71 21.52 373.71 15.9 380.42 5.5C381.74 3.45 383.7 1.82 385.37 0C387.85 0 390.34 0 392.82 0Z" />
		<path id="Forma 5 copiar 4" class="shp0" d="M372.82 0C373.49 3.77 373.9 7.61 374.89 11.29C375.88 14.95 376.43 19.63 378.95 21.81C385.06 27.12 384.65 31.75 380.5 37.84C367.6 56.81 373.6 75.27 384.88 89.17C389.51 94.87 395.22 96.98 402.16 95.63C410.06 94.11 417.81 91.68 425.76 90.6C431.76 89.79 438.18 89.51 444.05 90.73C453.33 92.67 460.45 90.12 466.64 83.49C474.32 75.28 491.39 74.3 499.95 81.93C513.42 93.95 530.23 94.74 544.22 88.09C551.8 84.5 562.97 78.06 565.23 65.11C566.24 59.32 573.78 54.43 578.99 49.85C579.77 49.16 585.76 51.87 586.35 53.89C589.56 64.86 592.78 75.99 594.14 87.28C595.33 97.21 598.7 103.6 608.95 105.62C612.09 106.24 615 108.08 616.43 108.69C613.3 115.54 611.14 121.72 607.77 127.16C605.62 130.62 601.69 132.99 598.56 135.85C588.76 144.77 578.78 153.51 569.27 162.73C566.83 165.1 565.9 169.02 564.27 172.23C564.87 173.03 565.48 173.83 566.08 174.63C571.43 172.16 577.58 170.68 581.98 167.06C600.94 151.47 620.99 154.24 641.51 162.44C649.04 165.45 649.63 168.46 643.3 173.55C633.98 181.04 624.11 187.84 613.64 195.55C614.65 197.1 616.52 199.98 618.68 203.32C621.44 201.3 623.85 199.9 625.81 198.03C644.8 179.97 666.81 178.3 689.59 188.11C704.54 194.55 718.46 203.47 732.53 211.79C734.25 212.81 735 217.19 734.6 219.75C733.52 226.62 731.57 233.35 729.63 241.52C738.67 238.75 745.94 236.35 753.31 234.32C763.45 231.53 772.68 232.91 781.27 239.69C792.64 248.65 805.36 252.8 820.26 250.17C832.86 247.95 842.34 252.74 853.71 260.36C873.08 273.34 881.53 293.91 896.93 309.01C902.69 314.65 911.33 318.45 919.31 320.47C937.84 325.17 944.66 331.21 947.7 349.93C949.44 360.61 950.61 371.39 952.38 382.08C954.69 395.96 950.39 407.65 941.39 418.01C932.66 428.04 924.57 438.71 915.07 447.94C910.02 452.84 902.96 456.73 896.14 458.51C884.91 461.46 877.47 466.94 873.8 478.21C868.69 493.92 857.69 504.65 842.4 510.32C831.78 514.26 828.66 521.69 827.04 532.15C822.85 559.34 818.11 586.5 812.1 613.33C810.34 621.22 803.37 627.87 799.23 635.33C796.37 640.47 792.35 646 792.26 651.41C792.1 660.78 789.38 668.17 783.25 674.95C774.39 684.74 767.82 696.62 755.16 702.85C751.71 704.55 749.56 709.33 747.33 713.01C736.73 730.57 720.41 740.35 701.24 744.86C694.21 746.52 685.83 744.73 678.61 742.63C670.93 740.4 664.62 740.56 658.96 746.29C651.33 754.01 642.05 756.88 631.36 757.76C625.54 758.24 619.83 761.42 614.34 763.97C607.92 766.95 601.62 770.28 595.6 773.99C591.23 776.67 587.51 780.4 583.26 783.31C580.11 785.48 576.57 787.09 573.21 788.95C571.88 788.06 570.55 787.17 569.23 786.28C565.85 805.16 562.13 823.99 559.2 842.94C557.28 855.39 552.4 865.61 543.27 874.58C535.87 881.83 529.67 890.49 523.89 899.17C517.55 908.7 515.31 909.78 504.55 903.72C493.55 916.94 478.54 927.08 473.27 945.19C471.58 950.99 468.83 957.87 460.27 951.38C459.27 950.62 456.75 951.87 454.94 952.17C448.92 953.17 444.56 952.73 442.34 945.19C440.99 940.63 436.14 936.94 432.47 933.26C426.78 927.56 420.57 922.38 414.92 916.64C409.76 911.39 405.71 904.02 396.57 910.61C395.9 911.09 391.48 908.49 391.56 907.56C392.42 897.77 386.36 891.3 381.12 884.44C376.66 878.6 376.84 873.56 382.07 868C399.76 849.17 417.36 830.53 442.63 821.3C446.91 819.74 450.37 813.79 452.5 809.1C454.47 804.77 454.19 799.4 454.8 794.48C455.85 786.15 453.72 779 446.45 774.16C442.14 771.29 441.39 768.16 443.04 763.12C445.25 756.4 446.74 749.32 447.43 742.28C448.26 733.88 444.85 731.07 436.46 731.73C422.23 732.85 421.88 732.5 422.73 718.2C424.2 693.69 417.79 686.19 393.06 683.4C390.28 683.09 387.54 682.35 384.76 682.23C376.21 681.87 372.39 677.32 372.86 669.02C373.65 655.08 373.51 640.98 375.77 627.28C377.72 615.38 381.97 603.78 386.08 592.36C389.98 581.51 386.98 570.64 376.88 564.99C369.37 560.8 368.94 554.9 371.29 547.58C375.15 535.6 374.44 536.03 362.08 534.36C352.28 533.04 342.25 529.89 333.49 525.32C324.91 520.85 324.03 512.66 328.53 503.81C338.99 483.27 324.48 460.65 301.42 461.35C298.78 461.43 294.66 461.25 293.66 459.66C285.3 446.44 268.9 445.4 258.31 435.72C256.58 434.14 254.07 432.73 251.8 432.52C223.31 429.87 210.78 401.68 217.85 375.88C219.14 371.15 218.03 365.76 218.03 360.74C200.35 360.87 187.22 365.14 174.28 375.32C165.26 382.42 153.4 389.26 139.67 388.32C130.12 387.67 120.44 388.91 110.82 388.97C98.96 389.04 94.96 385.07 95.21 373.5C95.37 366.44 96.03 359.39 96.53 351.44C87.33 354.96 78.61 358.04 70.12 361.65C63.97 364.25 59.49 364.23 56.94 356.93C56.19 354.75 54.37 352.02 52.41 351.33C35.45 345.35 33.44 329.58 28.45 315.69C27.64 313.46 26.71 311.15 25.3 309.28C17.9 299.52 17.94 291.09 27.39 283.41C33.44 278.49 36.41 272.87 37.83 265.64C41.38 247.61 52.49 234.1 68.46 227.46C79.71 222.78 93.53 222.93 106.14 223.32C114.41 223.58 118.13 222.19 119.61 213.95C122.43 198.19 125.72 182.51 129.27 166.9C130.13 163.09 132.46 159.51 134.61 156.13C139.95 147.71 139.05 139.79 133.59 131.85C130.25 127.01 126.72 122.2 124.17 116.94C119.63 107.55 122.73 102.29 133.01 100.68C134.54 100.44 136.27 100.6 137.57 99.93C139.83 98.76 143.35 97.27 143.56 95.58C143.8 93.59 141.32 91.01 139.56 89.11C138.36 87.83 135.87 87.68 134.84 86.34C133.13 84.11 130.77 81.06 131.2 78.86C131.66 76.54 134.76 73.9 137.27 73.04C140.35 71.98 144.02 72.76 147.42 72.49C157.24 71.73 167.15 71.4 176.86 69.84C188.51 67.97 195.12 71.57 199.09 82.68C200.71 87.2 203.1 91.62 205.96 95.48C209.01 99.6 213.12 102.4 218.66 98.89C219.62 98.28 221.28 97.91 222.26 98.31C235.42 103.71 244.53 94.76 254.56 89.28C263.81 84.23 272.92 78.94 282.1 73.77C291.14 68.67 291.58 62.98 282.83 57.19C273.88 51.27 270.08 43.02 270.53 32.71C270.94 23.37 275.76 20.47 283.98 24.5C290.33 27.62 296.42 31.28 302.62 34.71C303.18 34.48 304.03 34.4 304.25 33.98C310.17 22.52 321.06 21.41 331.9 21.46C344.71 21.52 353.71 15.9 360.42 5.5C361.74 3.45 363.7 1.82 365.37 0C367.85 0 370.34 0 372.82 0Z" />
		<path id="Forma 5 copiar 5" class="shp0" d="M352.82 0C353.49 3.77 353.9 7.61 354.89 11.29C355.88 14.95 356.43 19.63 358.95 21.81C365.06 27.12 364.65 31.75 360.5 37.84C347.6 56.81 353.6 75.27 364.88 89.17C369.51 94.87 375.22 96.98 382.16 95.63C390.06 94.11 397.81 91.68 405.76 90.6C411.76 89.79 418.18 89.51 424.05 90.73C433.33 92.67 440.45 90.12 446.64 83.49C454.32 75.28 471.39 74.3 479.95 81.93C493.42 93.95 510.23 94.74 524.22 88.09C531.8 84.5 542.97 78.06 545.23 65.11C546.24 59.32 553.78 54.43 558.99 49.85C559.77 49.16 565.76 51.87 566.35 53.89C569.56 64.86 572.78 75.99 574.14 87.28C575.33 97.21 578.7 103.6 588.95 105.62C592.09 106.24 595 108.08 596.43 108.69C593.3 115.54 591.14 121.72 587.77 127.16C585.62 130.62 581.69 132.99 578.56 135.85C568.76 144.77 558.78 153.51 549.27 162.73C546.83 165.1 545.9 169.02 544.27 172.23C544.87 173.03 545.48 173.83 546.08 174.63C551.43 172.16 557.58 170.68 561.98 167.06C580.94 151.47 600.99 154.24 621.51 162.44C629.04 165.45 629.63 168.46 623.3 173.55C613.98 181.04 604.11 187.84 593.64 195.55C594.65 197.1 596.52 199.98 598.68 203.32C601.44 201.3 603.85 199.9 605.81 198.03C624.8 179.97 646.81 178.3 669.59 188.11C684.54 194.55 698.46 203.47 712.53 211.79C714.25 212.81 715 217.19 714.6 219.75C713.52 226.62 711.57 233.35 709.63 241.52C718.67 238.75 725.94 236.35 733.31 234.32C743.45 231.53 752.68 232.91 761.27 239.69C772.64 248.65 785.36 252.8 800.26 250.17C812.86 247.95 822.34 252.74 833.71 260.36C853.08 273.34 861.53 293.91 876.93 309.01C882.69 314.65 891.33 318.45 899.31 320.47C917.84 325.17 924.66 331.21 927.7 349.93C929.44 360.61 930.61 371.39 932.38 382.08C934.69 395.96 930.39 407.65 921.39 418.01C912.66 428.04 904.57 438.71 895.07 447.94C890.02 452.84 882.96 456.73 876.14 458.51C864.91 461.46 857.47 466.94 853.8 478.21C848.69 493.92 837.69 504.65 822.4 510.32C811.78 514.26 808.66 521.69 807.04 532.15C802.85 559.34 798.11 586.5 792.1 613.33C790.34 621.22 783.37 627.87 779.23 635.33C776.37 640.47 772.35 646 772.26 651.41C772.1 660.78 769.38 668.17 763.25 674.95C754.39 684.74 747.82 696.62 735.16 702.85C731.71 704.55 729.56 709.33 727.33 713.01C716.73 730.57 700.41 740.35 681.24 744.86C674.21 746.52 665.83 744.73 658.61 742.63C650.93 740.4 644.62 740.56 638.96 746.29C631.33 754.01 622.05 756.88 611.36 757.76C605.54 758.24 599.83 761.42 594.34 763.97C587.92 766.95 581.62 770.28 575.6 773.99C571.23 776.67 567.51 780.4 563.26 783.31C560.11 785.48 556.57 787.09 553.2 788.95C551.88 788.06 550.55 787.17 549.23 786.28C545.85 805.16 542.13 823.99 539.2 842.94C537.28 855.39 532.4 865.61 523.27 874.58C515.87 881.83 509.67 890.49 503.89 899.17C497.55 908.7 495.31 909.78 484.55 903.72C473.55 916.94 458.54 927.08 453.27 945.19C451.58 950.99 448.83 957.87 440.27 951.38C439.27 950.62 436.75 951.87 434.94 952.17C428.92 953.17 424.56 952.73 422.34 945.19C420.99 940.63 416.14 936.94 412.47 933.26C406.78 927.56 400.57 922.38 394.92 916.64C389.76 911.39 385.71 904.02 376.57 910.61C375.9 911.09 371.48 908.49 371.56 907.56C372.42 897.77 366.36 891.3 361.12 884.44C356.66 878.6 356.84 873.56 362.07 868C379.76 849.17 397.36 830.53 422.63 821.3C426.91 819.74 430.37 813.79 432.5 809.1C434.47 804.77 434.19 799.4 434.8 794.48C435.85 786.15 433.72 779 426.45 774.16C422.14 771.29 421.39 768.16 423.04 763.12C425.25 756.4 426.74 749.32 427.43 742.28C428.26 733.88 424.85 731.07 416.46 731.73C402.23 732.85 401.88 732.5 402.73 718.2C404.2 693.69 397.79 686.19 373.06 683.4C370.28 683.09 367.54 682.35 364.76 682.23C356.21 681.87 352.39 677.32 352.86 669.02C353.65 655.08 353.51 640.98 355.77 627.28C357.72 615.38 361.97 603.78 366.08 592.36C369.98 581.51 366.98 570.64 356.88 564.99C349.37 560.8 348.94 554.9 351.29 547.58C355.15 535.6 354.44 536.03 342.08 534.36C332.28 533.04 322.25 529.89 313.49 525.32C304.91 520.85 304.03 512.66 308.53 503.81C318.99 483.27 304.48 460.65 281.42 461.35C278.78 461.43 274.66 461.25 273.66 459.66C265.3 446.44 248.9 445.4 238.31 435.72C236.58 434.14 234.07 432.73 231.8 432.52C203.31 429.87 190.78 401.68 197.85 375.88C199.14 371.15 198.03 365.76 198.03 360.74C180.35 360.87 167.22 365.14 154.28 375.32C145.26 382.42 133.4 389.26 119.67 388.32C110.12 387.67 100.44 388.91 90.82 388.97C78.96 389.04 74.96 385.07 75.21 373.5C75.37 366.44 76.03 359.39 76.53 351.44C67.33 354.96 58.61 358.04 50.12 361.65C43.97 364.25 39.49 364.23 36.94 356.93C36.19 354.75 34.37 352.02 32.41 351.33C15.45 345.35 13.44 329.58 8.45 315.69C7.64 313.46 6.71 311.15 5.3 309.28C-2.1 299.52 -2.06 291.09 7.39 283.41C13.44 278.49 16.41 272.87 17.83 265.64C21.38 247.61 32.49 234.1 48.46 227.46C59.71 222.78 73.53 222.93 86.14 223.32C94.41 223.58 98.13 222.19 99.61 213.95C102.43 198.19 105.72 182.51 109.27 166.9C110.13 163.09 112.46 159.51 114.61 156.13C119.95 147.71 119.05 139.79 113.59 131.85C110.25 127.01 106.72 122.2 104.17 116.94C99.63 107.55 102.73 102.29 113.01 100.68C114.54 100.44 116.27 100.6 117.57 99.93C119.83 98.76 123.35 97.27 123.56 95.58C123.8 93.59 121.32 91.01 119.56 89.11C118.36 87.83 115.87 87.68 114.84 86.34C113.13 84.11 110.77 81.06 111.21 78.86C111.66 76.54 114.76 73.9 117.27 73.04C120.35 71.98 124.02 72.76 127.42 72.49C137.24 71.73 147.15 71.4 156.86 69.84C168.51 67.97 175.12 71.57 179.09 82.68C180.71 87.2 183.1 91.62 185.96 95.48C189.01 99.6 193.12 102.4 198.66 98.89C199.62 98.28 201.28 97.91 202.26 98.31C215.42 103.71 224.53 94.76 234.56 89.28C243.81 84.23 252.92 78.94 262.1 73.77C271.14 68.67 271.58 62.98 262.83 57.19C253.88 51.27 250.08 43.02 250.53 32.71C250.94 23.37 255.76 20.47 263.98 24.5C270.33 27.62 276.42 31.28 282.62 34.71C283.18 34.48 284.03 34.4 284.25 33.98C290.17 22.52 301.06 21.41 311.9 21.46C324.71 21.52 333.71 15.9 340.42 5.5C341.74 3.45 343.7 1.82 345.37 0C347.85 0 350.34 0 352.82 0Z" />
		<path id="Forma 3" class="shp1" d="M640.63 252.12L640.63 392.69L781.29 392.69L781.29 252.12L640.63 252.12ZM499.96 392.7C577.65 392.7 640.62 329.76 640.62 252.12L499.96 252.12L499.96 392.7ZM499.96 111.54C422.27 111.54 359.3 174.48 359.3 252.12L499.96 252.12L499.96 111.54ZM499.96 252.12C577.65 252.12 640.63 189.18 640.63 111.54L499.96 111.54L499.96 252.12ZM218.63 252.12C296.32 252.12 359.29 189.18 359.29 111.54L218.63 111.54L218.63 252.12ZM781.29 252.12C781.29 174.48 718.31 111.54 640.63 111.54L640.63 252.12L781.29 252.12ZM640.63 392.7L640.63 533.27L499.96 533.27L499.96 392.7L640.63 392.7ZM499.96 252.12L499.96 392.69L359.3 392.69L359.3 252.12L499.96 252.12ZM640.63 533.27C562.94 533.27 499.96 596.21 499.96 673.85L640.63 673.85L640.63 533.27ZM781.29 673.85C858.98 673.85 921.96 610.91 921.96 533.27L781.29 533.27L781.29 673.85ZM640.63 814.42C562.94 814.42 499.96 877.36 499.96 955L640.63 955L640.63 814.42ZM640.63 814.43C718.31 814.43 781.29 751.49 781.29 673.85L640.63 673.85L640.63 814.43ZM640.62 673.85C562.94 673.85 499.96 736.79 499.96 814.43L640.62 814.43L640.62 673.85ZM499.96 392.7C422.27 392.7 359.3 455.63 359.3 533.27L499.96 533.27L499.96 392.7ZM781.29 392.69C858.98 392.69 921.96 329.76 921.96 252.12L781.29 252.12L781.29 392.69ZM921.33 392.69C999.02 392.69 1062 329.76 1062 252.12L921.33 252.12L921.33 392.69ZM921.96 392.7C844.27 392.7 781.29 455.63 781.29 533.27L921.96 533.27L921.96 392.7ZM499.96 673.85C499.96 596.21 436.98 533.27 359.3 533.27L359.3 673.85L499.96 673.85ZM640.63 392.7C640.63 470.33 703.6 533.27 781.29 533.27L781.29 392.7L640.63 392.7ZM218.63 252.12L218.63 392.69L359.29 392.69L359.29 252.12L218.63 252.12ZM640.63 533.27L640.63 673.85L781.29 673.85L781.29 533.27L640.63 533.27ZM218.63 533.27C296.32 533.27 359.29 470.34 359.29 392.7L218.63 392.7L218.63 533.27ZM78 252.12C78 329.76 140.98 392.69 218.67 392.69L218.67 252.12L78 252.12ZM359.29 -29C281.61 -29 218.63 33.94 218.63 111.58L359.29 111.58L359.29 -29ZM218.67 111.54C140.98 111.54 78 174.48 78 252.12L218.67 252.12L218.67 111.54ZM499.92 111.58C499.92 33.94 436.95 -29 359.26 -29L359.26 111.58L499.92 111.58Z" />
	</g>
	<g id="PINS">
		<path id="Forma 4" class="shp2" d="M677 602.67C677 589.6 666.48 579 653.5 579C640.53 579 630.01 589.6 630.01 602.67C630.01 602.67 630.01 602.67 630.01 602.67C629.97 604.77 630.06 606.95 630.3 609.18C632.42 628.96 645.5 642.93 653.49 649.99L653.49 650C653.5 650 653.5 650 653.5 650C653.5 650 653.5 650 653.5 650L653.5 649.99C661.5 642.93 674.58 628.96 676.7 609.18C676.93 607.08 677.02 605.04 676.99 603.05C677 602.92 677 602.79 677 602.67ZM653.5 612.19C648.55 612.19 644.55 608.16 644.55 603.18C644.55 598.2 648.55 594.16 653.5 594.16C658.44 594.16 662.45 598.2 662.45 603.18C662.45 608.16 658.44 612.19 653.5 612.19Z" />
		<path id="Forma 4 copiar" class="shp2" d="M744 435.67C744 422.6 733.48 412 720.5 412C707.53 412 697.01 422.6 697.01 435.67C697.01 435.67 697.01 435.67 697.01 435.67C696.97 437.77 697.06 439.95 697.3 442.18C699.42 461.96 712.5 475.93 720.49 482.99L720.49 483C720.5 483 720.5 483 720.5 483C720.5 483 720.5 483 720.5 483L720.5 482.99C728.5 475.93 741.58 461.96 743.7 442.18C743.93 440.08 744.02 438.04 743.99 436.05C744 435.92 744 435.79 744 435.67ZM720.5 445.19C715.55 445.19 711.55 441.16 711.55 436.18C711.55 431.2 715.55 427.16 720.5 427.16C725.44 427.16 729.45 431.2 729.45 436.18C729.45 441.16 725.44 445.19 720.5 445.19Z" />
		<path id="Forma 4 copiar 2" class="shp2" d="M462 297.67C462 284.6 451.48 274 438.5 274C425.53 274 415.01 284.6 415.01 297.67C415.01 297.67 415.01 297.67 415.01 297.67C414.97 299.77 415.06 301.95 415.29 304.18C417.42 323.96 430.5 337.93 438.49 344.99L438.49 345C438.5 345 438.5 345 438.5 345C438.5 345 438.5 345 438.5 345L438.5 344.99C446.5 337.93 459.58 323.96 461.7 304.18C461.93 302.08 462.02 300.04 461.99 298.05C462 297.92 462 297.79 462 297.67ZM438.5 307.19C433.55 307.19 429.55 303.16 429.55 298.18C429.55 293.2 433.55 289.16 438.5 289.16C443.44 289.16 447.45 293.2 447.45 298.18C447.45 303.16 443.44 307.19 438.5 307.19Z" />
		<path id="Forma 4 copiar 4" class="shp2" d="M243 297.67C243 284.6 232.48 274 219.5 274C206.53 274 196.01 284.6 196.01 297.67C196.01 297.67 196.01 297.67 196.01 297.67C195.97 299.77 196.06 301.95 196.3 304.18C198.42 323.96 211.5 337.93 219.49 344.99L219.49 345C219.5 345 219.5 345 219.5 345C219.5 345 219.5 345 219.5 345L219.5 344.99C227.5 337.93 240.58 323.96 242.7 304.18C242.93 302.08 243.02 300.04 242.99 298.05C243 297.92 243 297.79 243 297.67ZM219.5 307.19C214.55 307.19 210.55 303.16 210.55 298.18C210.55 293.2 214.55 289.16 219.5 289.16C224.44 289.16 228.45 293.2 228.45 298.18C228.45 303.16 224.44 307.19 219.5 307.19Z" />
		<path id="Forma 4 copiar 5" class="shp2" d="M594 749.67C594 736.6 583.48 726 570.5 726C557.53 726 547.01 736.6 547.01 749.67C547.01 749.67 547.01 749.67 547.01 749.67C546.97 751.77 547.06 753.95 547.3 756.18C549.42 775.96 562.5 789.93 570.49 796.99L570.49 797C570.5 797 570.5 797 570.5 797C570.5 797 570.5 797 570.5 797L570.5 796.99C578.5 789.93 591.58 775.96 593.7 756.18C593.93 754.08 594.02 752.04 593.99 750.05C594 749.92 594 749.79 594 749.67ZM570.5 759.19C565.55 759.19 561.55 755.16 561.55 750.18C561.55 745.2 565.55 741.16 570.5 741.16C575.44 741.16 579.45 745.2 579.45 750.18C579.45 755.16 575.44 759.19 570.5 759.19Z" />
		<path id="Forma 4 copiar 6" class="shp2" d="M838 532.67C838 519.6 827.48 509 814.5 509C801.53 509 791.01 519.6 791.01 532.67C791.01 532.67 791.01 532.67 791.01 532.67C790.97 534.77 791.06 536.95 791.29 539.18C793.42 558.96 806.5 572.93 814.49 579.99L814.49 580C814.5 580 814.5 580 814.5 580C814.5 580 814.5 580 814.5 580L814.5 579.99C822.5 572.93 835.58 558.96 837.7 539.18C837.93 537.08 838.02 535.04 837.99 533.05C837.99 532.92 838 532.79 838 532.67ZM814.5 542.19C809.55 542.19 805.55 538.16 805.55 533.18C805.55 528.2 809.55 524.16 814.5 524.16C819.44 524.16 823.45 528.2 823.45 533.18C823.45 538.16 819.44 542.19 814.5 542.19Z" />
		<path id="Forma 4 copiar 3" class="shp2" d="M528 435.67C528 422.6 517.48 412 504.5 412C491.53 412 481.01 422.6 481.01 435.67C481.01 435.67 481.01 435.67 481.01 435.67C480.97 437.77 481.06 439.95 481.3 442.18C483.42 461.96 496.5 475.93 504.49 482.99L504.49 483C504.5 483 504.5 483 504.5 483C504.5 483 504.5 483 504.5 483L504.5 482.99C512.5 475.93 525.58 461.96 527.7 442.18C527.93 440.08 528.02 438.04 527.99 436.05C528 435.92 528 435.79 528 435.67ZM504.5 445.19C499.55 445.19 495.55 441.16 495.55 436.18C495.55 431.2 499.55 427.16 504.5 427.16C509.44 427.16 513.45 431.2 513.45 436.18C513.45 441.16 509.44 445.19 504.5 445.19Z" />
	</g>
</svg>